<svg width="800" height="600" xmlns="http://www.w3.org/2000/svg">
 <g>
  <g stroke="null" id="svg_1">
   <g stroke="null" id="svg_2" transform="translate(0 980) scale(0.1 -0.1)" fill="#000000">
    <path fill="#ffffff" stroke="null" id="svg_3" d="m3824.30934,9385.8816c-535.06545,-40.2892 -1032.90895,-248.71865 -1447.52005,-605.94955c-77.54572,-66.07429 -259.00269,-255.16492 -321.55624,-333.59456c-455.45184,-573.71819 -656.55374,-1290.86592 -567.63465,-2022.51777c61.5196,-501.73482 259.00269,-967.47795 581.0759,-1367.1468c50.6632,-62.85115 191.27943,-211.1154 256.41784,-270.74341c686.53808,-626.36274 1632.59583,-822.43684 2494.38723,-516.77612c462.68944,163.84274 878.85146,472.18941 1179.21187,874.00701c243.49355,324.99953 407.89047,699.42049 484.91922,1100.7009c155.09143,807.39554 -59.45172,1635.20427 -584.17773,2256.19512c-57.9008,68.76023 -199.55098,213.80135 -263.13847,269.13185c-394.44921,344.87554 -860.75746,551.15624 -1377.7289,609.17268c-89.95303,10.2066 -343.26904,14.50411 -434.25601,7.52065zm-30.50132,-1172.68427c90.98697,-20.41319 189.72852,-83.80153 245.04447,-159.00804c64.10446,-86.48748 90.47,-185.33031 90.47,-337.89208c0,-140.20641 -16.54309,-246.5699 -85.81726,-559.21408c-42.39166,-189.62783 -75.47783,-350.24743 -72.376,-352.93338c1.03394,-1.07438 13.95823,20.41319 28.9504,47.80985c262.10452,474.87535 432.18813,705.86676 616.74693,837.47814c148.88778,106.36348 300.87738,132.68576 455.96882,79.50402c58.93474,-20.41319 95.12275,-42.43796 129.24286,-77.35526c66.68932,-69.83461 95.63972,-168.14026 95.63972,-327.14829c0,-127.85106 -14.4752,-240.12362 -67.20629,-524.29677c-51.69714,-281.4872 -65.65537,-376.56971 -70.82509,-494.75136c-8.27154,-193.38815 39.28983,-318.01607 142.16715,-370.66063c20.67886,-10.74379 32.05223,-12.89254 78.57966,-12.89254c52.73109,0 56.34989,0.53719 94.0888,19.876c71.85903,37.06606 125.10709,111.19819 164.91389,228.84265c26.88252,81.11559 42.39166,97.23127 96.67366,102.06597c37.22194,3.22314 67.20629,-9.66941 95.63972,-41.36358c28.9504,-32.23136 42.90863,-60.1652 55.83292,-111.73538c13.44126,-55.86769 12.40731,-106.90067 -3.10183,-171.36339c-53.76503,-219.71043 -248.66327,-413.09858 -465.2743,-461.98281c-57.9008,-12.89254 -166.98178,-12.89254 -224.88258,0c-143.20109,31.69417 -261.58755,102.06597 -336.54841,200.37161c-200.06795,261.6112 -192.83035,752.60223 23.26372,1545.49366c12.92429,47.27266 22.74674,86.48748 21.7128,87.56186c-3.10183,3.22314 -133.37863,-129.99981 -181.45698,-186.40469c-248.66327,-290.08223 -445.11241,-616.69333 -740.30311,-1227.47758c-66.68932,-138.59484 -130.79378,-268.05747 -141.1332,-287.39628c-61.5196,-109.04943 -147.33686,-137.52046 -253.31601,-84.33872c-38.77286,19.876 -91.50395,70.90899 -105.97915,103.14035c-5.16971,11.81816 -10.33943,38.67763 -11.89034,59.09082c-2.58486,42.97515 6.72063,371.19782 14.4752,502.8092c27.91646,475.41254 94.60577,1045.90759 168.01572,1440.74174c7.2376,37.60325 12.92429,69.83461 12.92429,72.52056c-0.51697,4.29751 -8.78851,-5.90908 -80.13057,-93.47094c-230.56926,-284.71034 -470.44402,-726.81714 -732.54854,-1349.95675c-25.3316,-60.70239 -83.74937,-201.98318 -129.24286,-314.79294c-140.09926,-345.41273 -162.32903,-395.90852 -190.76246,-429.21426c-8.27154,-10.2066 -28.43343,-25.2479 -43.94257,-33.30574c-25.3316,-12.89254 -32.5692,-13.96692 -71.34206,-11.81816c-35.67103,2.14876 -49.11229,5.37189 -81.16452,20.95038c-43.94257,22.02476 -91.50395,64.99991 -112.1828,100.99159l-13.95823,24.71071l1.55091,107.43786c1.03394,59.09082 -1.03394,169.21463 -4.13577,244.42114c-11.37337,288.47066 -35.67103,486.69352 -88.40212,734.33779c-8.27154,39.21482 -14.99217,78.42964 -14.99217,87.56186c0,22.02476 33.60314,59.62801 68.7572,75.74369c23.26372,11.28098 34.63709,12.89254 88.91909,12.89254c59.45172,0 63.58749,-0.53719 96.15669,-17.19006c86.33423,-44.58671 137.5144,-142.89236 148.3708,-286.3219l4.13577,-51.03298l6.72063,21.48757c70.82509,217.56167 232.12018,586.61073 347.40481,795.04018c291.5719,528.0571 601.23779,826.19716 860.24049,829.4203c20.16189,0 51.69714,-3.22314 70.30812,-6.98346z"/>
   </g>
  </g>
 </g>

</svg>
