<svg width="800" height="600" xmlns="http://www.w3.org/2000/svg">
    <g>
        <title>Layer 1</title>
        <g stroke="null">
            <g stroke="null">
                <path stroke="null" fill="#ffffff"
                      d="m284.80118,379.45975c-6.26596,0 -11.28566,-5.05431 -11.28566,-11.28566s5.08893,-11.28566 11.28566,-11.28566l74.39534,0c6.26596,0 11.28566,5.05431 11.28566,11.28566s-5.05431,11.28566 -11.28566,11.28566l-74.39534,0l0,0l0,0zm124.0384,-32.71456c-3.32338,0 -6.16211,-2.83872 -6.16211,-6.30058c0,-3.32338 2.83872,-6.16211 6.16211,-6.16211l16.09764,0c0.13847,0 0.48466,0 0.62313,0c5.67745,0.13847 10.73176,1.24627 14.98985,3.94652c4.74275,3.01182 8.20461,7.58147 10.10863,14.36671c0,0.13847 0,0.31157 0.17309,0.48466l1.59246,6.30058l138.09354,0c3.46186,0 6.16211,2.83872 6.16211,6.16211c0,0.62313 -0.17309,1.24627 -0.31157,1.90402l-16.09764,64.87523c-0.62313,2.83872 -3.15029,4.74275 -5.98902,4.74275l0,0l-101.01704,0c2.21559,8.20461 4.43118,12.63578 7.40838,14.67828c3.63495,2.35406 9.93553,2.52716 20.52882,2.35406l0.13847,0l0,0l71.34891,0c3.46186,0 6.16211,2.83872 6.16211,6.16211c0,3.46186 -2.83872,6.16211 -6.16211,6.16211l-71.38353,0l0,0c-13.12044,0.13847 -21.15196,-0.17309 -27.62563,-4.43118c-6.64677,-4.43118 -10.10863,-11.97803 -13.57049,-25.72161l0,0l-21.15196,-80.07279c0,-0.17309 0,-0.17309 -0.13847,-0.31157c-0.9347,-3.46186 -2.52716,-5.85054 -4.74275,-7.09681c-2.21559,-1.41936 -5.19279,-2.0425 -8.68927,-2.0425c-0.17309,0 -0.31157,0 -0.48466,0l-16.06302,0l0,0l0,0zm145.36345,126.91174c8.3777,0 15.16294,6.78524 15.16294,15.16294s-6.78524,15.16294 -15.16294,15.16294s-15.16294,-6.78524 -15.16294,-15.16294s6.78524,-15.16294 15.16294,-15.16294l0,0l0,0zm-66.46769,0c8.3777,0 15.16294,6.78524 15.16294,15.16294s-6.78524,15.16294 -15.16294,15.16294c-8.3777,0 -15.16294,-6.78524 -15.16294,-15.16294s6.81986,-15.16294 15.16294,-15.16294l0,0l0,0zm-202.93416,-278.85272c-6.26596,0 -11.28566,-5.08893 -11.28566,-11.28566c0,-6.23135 5.08893,-11.28566 11.28566,-11.28566l174.8931,0c6.26596,0 11.28566,5.05431 11.28566,11.28566c0,6.23135 -5.05431,11.28566 -11.28566,11.28566l-174.8931,0l0,0l0,0zm-61.2749,-116.24922l296.43896,0c7.23528,0 13.81282,2.94258 18.52094,7.65071s7.65071,11.28566 7.65071,18.52094l0,207.64229l-22.50208,0l0,-207.53843c0,-1.00394 -0.41542,-1.93864 -1.07318,-2.63101c-0.69237,-0.65775 -1.62707,-1.07318 -2.63101,-1.07318l0,0l-296.40434,0c-1.00394,0 -1.93864,0.41542 -2.63101,1.07318s-1.03856,1.62707 -1.03856,2.63101l0,341.5816c0,1.00394 0.41542,1.93864 1.07318,2.63101s1.59246,1.07318 2.63101,1.07318l190.57532,0c2.11173,8.27384 4.50042,15.50913 7.71994,22.39823l-198.32989,0c-7.23528,0 -13.81282,-2.94258 -18.52094,-7.65071c-4.74275,-4.67351 -7.68533,-11.25104 -7.68533,-18.48633l0,-341.61622c0,-7.23528 2.94258,-13.84743 7.65071,-18.55556s11.32028,-7.65071 18.55556,-7.65071l0,0l0,0zm61.2749,208.57699c-6.26596,0 -11.28566,-5.05431 -11.28566,-11.28566s5.08893,-11.28566 11.28566,-11.28566l174.8931,0c6.26596,0 11.28566,5.05431 11.28566,11.28566s-5.05431,11.28566 -11.28566,11.28566l-174.8931,0l0,0l0,0z"/>
            </g>
        </g>
    </g>

</svg>
