<svg width="800" height="600" xmlns="http://www.w3.org/2000/svg">
    <g>
        <title>Layer 1</title>
        <g>
            <g>
                <g>
                    <g>
                        <path fill="#ffffff"
                              d="m556.06349,87.5005l-312.13,0c-6.436,0 -11.671,5.236 -11.671,11.672l0,401.655c0,6.437 5.236,11.672 11.671,11.672l312.132,0c6.438,0 11.672,-5.236 11.672,-11.672l0,-401.655c0,-6.436 -5.237,-11.672 -11.674,-11.672zm-242.676,390.722c0,0.713 -0.581,1.294 -1.297,1.294l-35.739,0c-0.717,0 -1.297,-0.581 -1.297,-1.294l0,-35.743c0,-0.713 0.581,-1.297 1.297,-1.297l35.739,0c0.716,0 1.297,0.583 1.297,1.297l0,35.743zm0,-77.824c0,0.717 -0.581,1.297 -1.297,1.297l-35.739,0c-0.717,0 -1.297,-0.582 -1.297,-1.297l0,-35.74c0,-0.713 0.581,-1.297 1.297,-1.297l35.739,0c0.716,0 1.297,0.584 1.297,1.297l0,35.74zm0,-77.82c0,0.716 -0.581,1.297 -1.297,1.297l-35.739,0c-0.717,0 -1.297,-0.581 -1.297,-1.297l0,-35.741c0,-0.713 0.581,-1.296 1.297,-1.296l35.739,0c0.716,0 1.297,0.583 1.297,1.296l0,35.741zm70.04,155.644c0,0.713 -0.581,1.294 -1.297,1.294l-35.74,0c-0.717,0 -1.297,-0.581 -1.297,-1.294l0,-35.743c0,-0.713 0.581,-1.297 1.297,-1.297l35.74,0c0.716,0 1.297,0.583 1.297,1.297l0,35.743zm0,-77.824c0,0.717 -0.581,1.297 -1.297,1.297l-35.74,0c-0.717,0 -1.297,-0.582 -1.297,-1.297l0,-35.74c0,-0.713 0.581,-1.297 1.297,-1.297l35.74,0c0.716,0 1.297,0.584 1.297,1.297l0,35.74zm0,-77.82c0,0.716 -0.581,1.297 -1.297,1.297l-35.74,0c-0.717,0 -1.297,-0.581 -1.297,-1.297l0,-35.741c0,-0.713 0.581,-1.296 1.297,-1.296l35.74,0c0.716,0 1.297,0.583 1.297,1.296l0,35.741zm70.038,155.644c0,0.713 -0.582,1.294 -1.297,1.294l-35.738,0c-0.719,0 -1.299,-0.581 -1.299,-1.294l0,-35.743c0,-0.713 0.58,-1.297 1.299,-1.297l35.738,0c0.715,0 1.297,0.583 1.297,1.297l0,35.743zm0,-77.824c0,0.717 -0.582,1.297 -1.297,1.297l-35.738,0c-0.719,0 -1.299,-0.582 -1.299,-1.297l0,-35.74c0,-0.713 0.58,-1.297 1.299,-1.297l35.738,0c0.715,0 1.297,0.584 1.297,1.297l0,35.74zm0,-77.82c0,0.716 -0.582,1.297 -1.297,1.297l-35.738,0c-0.719,0 -1.299,-0.581 -1.299,-1.297l0,-35.741c0,-0.713 0.58,-1.296 1.299,-1.296l35.738,0c0.715,0 1.297,0.583 1.297,1.296l0,35.741zm70.327,155.644c0,0.713 -0.584,1.294 -1.295,1.294l-35.742,0c-0.715,0 -1.297,-0.581 -1.297,-1.294l0,-35.743c0,-0.713 0.582,-1.297 1.297,-1.297l35.742,0c0.711,0 1.295,0.583 1.295,1.297l0,35.743zm1.152,-77.824c0,0.717 -0.58,1.297 -1.295,1.297l-35.742,0c-0.715,0 -1.295,-0.582 -1.295,-1.297l0,-113.561c0,-0.713 0.58,-1.296 1.295,-1.296l35.742,0c0.715,0 1.295,0.583 1.295,1.296l0,113.561zm5.613,-154.518c0,3.099 -2.521,5.617 -5.619,5.617l-249.88,0c-3.099,0 -5.618,-2.519 -5.618,-5.617l0,-109.415c0,-3.099 2.519,-5.62 5.618,-5.62l249.878,0c3.099,0 5.619,2.521 5.619,5.62l0,109.415l0.002,0z"/>
                        <path fill="#ffffff"
                              d="m485.23749,148.3285c-11.442,0 -20.752,9.313 -20.752,20.76c0,1.057 0.082,2.096 0.23,3.111l-48.482,28.288c-3.782,-3.94 -9.093,-6.403 -14.973,-6.403c-7.333,0 -13.788,3.828 -17.479,9.587l-48.357,-18.925c0.061,-0.628 0.091,-1.262 0.091,-1.903c0,-11.451 -9.308,-20.761 -20.752,-20.761c-11.451,0 -20.762,9.31 -20.762,20.761c0,11.445 9.312,20.755 20.762,20.755c5.743,0 10.948,-2.345 14.717,-6.13l51.198,20.042c1.314,10.189 10.041,18.097 20.583,18.097c11.446,0 20.763,-9.313 20.763,-20.759c0,-0.499 -0.03,-0.995 -0.062,-1.477l49.43,-28.841c3.674,3.302 8.529,5.323 13.848,5.323c11.451,0 20.763,-9.315 20.763,-20.764c-0.004,-11.448 -9.317,-20.761 -20.766,-20.761zm-170.476,41.262c-3.72,0 -6.753,-3.028 -6.753,-6.747c0,-3.719 3.034,-6.748 6.753,-6.748c3.712,0 6.745,3.029 6.745,6.748c0,3.719 -3.033,6.747 -6.745,6.747zm86.498,32.002c-3.72,0 -6.744,-3.025 -6.744,-6.744c0,-3.723 3.024,-6.747 6.744,-6.747c3.723,0 6.746,3.024 6.746,6.747c-0.001,3.718 -3.023,6.744 -6.746,6.744zm83.978,-45.759c-3.711,0 -6.743,-3.022 -6.743,-6.746c0,-3.72 3.032,-6.744 6.743,-6.744c3.72,0 6.754,3.024 6.754,6.744c0,3.725 -3.035,6.746 -6.754,6.746z"/>
                    </g>
                </g>
            </g>
            <g/>
            <g/>
            <g/>
            <g/>
            <g/>
            <g/>
            <g/>
            <g/>
            <g/>
            <g/>
            <g/>
            <g/>
            <g/>
            <g/>
            <g/>
        </g>
    </g>

</svg>
