<svg width="800" height="600" xmlns="http://www.w3.org/2000/svg">
 <g>
  <title>Layer 1</title>
  <g id="svg_1">
   <g id="svg_2">
    <g id="svg_3">
     <g id="svg_4">
      <path fill="#ffffff" id="svg_5" d="m548.988,275.977c-18.629,24.992 -45.641,41.956 -77.406,44.25c26.626,31.04 43.84,70.378 47.152,113.55c1.243,16.197 0.369,24.083 -0.932,30.599c16.064,-2.497 30.815,-6.128 43.488,-10.794c42.626,-15.694 51.573,-38.891 51.573,-55.586c0,-50.475 -25.298,-95.147 -63.875,-122.019z"/>
      <path fill="#ffffff" id="svg_6" d="m429.72,281.407c10.642,5.952 22.36,9.093 34.525,9.093c45.83,0 81.115,-44.3 81.115,-96.677c0,-52.382 -35.29,-96.677 -81.115,-96.677c-18.734,0 -36.411,7.436 -50.724,21.145c20.03,25.65 31.446,59.072 31.446,94.667c0,23.586 -5.006,47.079 -15.247,68.449z"/>
      <path fill="#ffffff" id="svg_7" d="m412.999,308.279c-24.558,31.058 -57.739,46.482 -91.839,46.482c-36.232,0 -68.69,-17.206 -91.839,-46.482c-45.918,30.054 -76.321,81.938 -76.321,140.797c0,18.127 9.926,43.389 57.213,60.8c29.496,10.861 68.898,16.841 110.947,16.841c42.049,0 81.451,-5.98 110.947,-16.841c47.287,-17.411 57.213,-42.673 57.213,-60.8c0,-58.859 -30.402,-110.743 -76.321,-140.797z"/>
      <path fill="#ffffff" id="svg_8" d="m321.16,324.763c53.003,0 93.806,-51.234 93.806,-111.804c0,-60.571 -40.808,-111.804 -93.806,-111.804c-52.995,0 -93.806,51.223 -93.806,111.804c0,60.582 40.815,111.804 93.806,111.804z"/>
     </g>
    </g>
   </g>
   <g id="svg_9"/>
   <g id="svg_10"/>
   <g id="svg_11"/>
   <g id="svg_12"/>
   <g id="svg_13"/>
   <g id="svg_14"/>
   <g id="svg_15"/>
   <g id="svg_16"/>
   <g id="svg_17"/>
   <g id="svg_18"/>
   <g id="svg_19"/>
   <g id="svg_20"/>
   <g id="svg_21"/>
   <g id="svg_22"/>
   <g id="svg_23"/>
  </g>
 </g>

</svg>