<svg width="800" height="600" xmlns="http://www.w3.org/2000/svg">
    <g>
        <title>Layer 1</title>
        <g>
            <g>
                <path fill="#ffffff"
                      d="m582.52644,333.73851c-5.042,-8.951 -14.563,-14.511 -24.848,-14.511c-4.858,0 -9.682,1.27 -13.948,3.672l-83.024,46.756c-1.084,0.61 -1.866,1.642 -2.163,2.85c-1.448,5.911 -4.857,14.164 -12.865,19.911c-8.864,6.361 -20.855,7.686 -35.466,3.939c-0.088,-0.022 -0.175,-0.047 -0.252,-0.071l-47.894,-14.871c-2.896,-0.899 -4.52,-3.987 -3.621,-6.882c0.72,-2.316 2.83,-3.872 5.251,-3.872c0.55,0 1.101,0.084 1.634,0.249l47.645,14.794c0.076,0.023 0.154,0.045 0.232,0.065c11.236,2.836 20.011,2.047 26.056,-2.288c7.637,-5.48 8.982,-15.113 9.141,-16.528c0.006,-0.045 0.011,-0.09 0.014,-0.136c0.003,-0.023 0.004,-0.036 0.005,-0.039c0.001,-0.015 0.002,-0.03 0.003,-0.044c0.001,-0.01 0.001,-0.019 0.002,-0.029c0.909,-11.878 -6.756,-22.846 -18.24,-26.089l-0.211,-0.064c-0.35,-0.114 -35.596,-11.626 -58.053,-18.034c-2.495,-0.711 -9.37,-2.366 -19.313,-2.366c-13.906,0 -34.651,3.295 -54.549,19.025l-82.578,66.797c-1.889,1.527 -2.224,4.278 -0.758,6.215l44.712,59.06c0.725,0.956 1.801,1.584 2.99,1.744c0.199,0.027 0.398,0.04 0.598,0.04c0.987,0 1.954,-0.325 2.745,-0.935l57.592,-44.345c1.294,-0.995 3.029,-1.37 4.619,-0.995l93.02,21.982c6.898,1.63 14.353,0.578 20.523,-2.9l130.16,-73.304c13.684,-7.709 18.547,-25.111 10.841,-38.796z"/>
                <path fill="#ffffff"
                      d="m530.79544,126.96851l-170,0c-5.522,0 -10,4.477 -10,10l0,45.504c0,5.523 4.478,10 10,10l3.735,0l0,96.623c0,5.523 4.477,10 10,10l142.526,0c5.523,0 10,-4.477 10,-10l0,-96.624l3.738,0c5.522,0 10,-4.477 10,-10l0,-45.503c0.001,-5.523 -4.477,-10 -9.999,-10zm-63.965,89.262l-42.072,0c-4.411,0 -8,-3.589 -8,-8c0,-4.411 3.589,-8 8,-8l42.072,0c4.411,0 8,3.589 8,8c0,4.411 -3.589,8 -8,8zm53.965,-43.759l-3.738,0l-142.527,0l-3.735,0l0,-25.503l150,0l0,25.503z"/>
            </g>
            <g/>
            <g/>
            <g/>
            <g/>
            <g/>
            <g/>
            <g/>
            <g/>
            <g/>
            <g/>
            <g/>
            <g/>
            <g/>
            <g/>
            <g/>
        </g>
    </g>

</svg>
