<svg width="800" height="600" xmlns="http://www.w3.org/2000/svg">
 <g>
  <title>Layer 1</title>
  <g>
   <g>
    <g>
     <g>
      <path fill="#ffffff" d="m561.387,92.239l-89.6,0l0,-25.939c0,-5.246 -4.254,-9.5 -9.5,-9.5l-124.574,0c-5.246,0 -9.5,4.254 -9.5,9.5l0,25.939l-89.6,0c-5.246,0 -9.5,4.254 -9.5,9.5l0,431.961c0,5.246 4.254,9.5 9.5,9.5l322.774,0c5.246,0 9.5,-4.254 9.5,-9.5l0,-431.961c0,-5.247 -4.254,-9.5 -9.5,-9.5zm-214.174,-16.439l105.574,0l0,54.749l-105.574,0l0,-54.749zm204.674,448.4l-303.774,0l0,-412.961l80.1,0l0,28.811c0,5.246 4.254,9.5 9.5,9.5l124.574,0c5.246,0 9.5,-4.254 9.5,-9.5l0,-28.811l80.1,0l0,412.961z"/>
      <path fill="#ffffff" d="m288.418,198.396l146.541,0c5.246,0 9.5,-4.254 9.5,-9.5c0,-5.246 -4.254,-9.5 -9.5,-9.5l-146.541,0c-5.246,0 -9.5,4.254 -9.5,9.5c0,5.246 4.254,9.5 9.5,9.5z"/>
      <path fill="#ffffff" d="m514.456,228.243l-226.038,0c-5.246,0 -9.5,4.254 -9.5,9.5c0,5.246 4.254,9.5 9.5,9.5l226.038,0c5.246,0 9.5,-4.254 9.5,-9.5c0,-5.246 -4.254,-9.5 -9.5,-9.5z"/>
      <path fill="#ffffff" d="m514.456,277.091l-226.038,0c-5.246,0 -9.5,4.254 -9.5,9.5c0,5.246 4.254,9.5 9.5,9.5l226.038,0c5.246,0 9.5,-4.254 9.5,-9.5c0,-5.246 -4.254,-9.5 -9.5,-9.5z"/>
      <path fill="#ffffff" d="m514.456,323.064l-226.038,0c-5.246,0 -9.5,4.254 -9.5,9.5c0,5.246 4.254,9.5 9.5,9.5l226.038,0c5.246,0 9.5,-4.254 9.5,-9.5c0,-5.246 -4.254,-9.5 -9.5,-9.5z"/>
      <path fill="#ffffff" d="m482.849,198.396l31.607,0c5.246,0 9.5,-4.254 9.5,-9.5c0,-5.246 -4.254,-9.5 -9.5,-9.5l-31.607,0c-5.246,0 -9.5,4.254 -9.5,9.5c0,5.246 4.254,9.5 9.5,9.5z"/>
      <path fill="#ffffff" d="m418.431,430.62c0,-2.536 -1.015,-4.968 -2.818,-6.752l-36.227,-35.857c-3.588,-3.552 -9.331,-3.677 -13.069,-0.281c-12.546,11.393 -19.742,27.592 -19.742,44.444c0,16.116 6.335,31.261 17.838,42.647c1.851,1.832 4.267,2.748 6.683,2.748s4.832,-0.915 6.683,-2.748l37.835,-37.449c1.803,-1.785 2.817,-4.216 2.817,-6.752zm-46.578,23.333c-4.089,-6.473 -6.277,-13.961 -6.277,-21.779c0,-8.494 2.685,-16.752 7.546,-23.631l22.306,22.077l-23.575,23.333z"/>
      <path fill="#ffffff" d="m498.455,389.529l0,-0.001l-0.001,-0.001c-11.477,-11.36 -26.728,-17.616 -42.946,-17.616c-15.234,0 -29.811,5.618 -41.044,15.819c-1.931,1.753 -3.055,4.222 -3.112,6.829c-0.056,2.607 0.962,5.122 2.816,6.956l29.405,29.105l-31.013,30.697c-1.803,1.784 -2.817,4.216 -2.817,6.752s1.014,4.967 2.817,6.752c11.477,11.36 26.73,17.616 42.949,17.616c33.517,0 60.786,-27.034 60.786,-60.263c-0.002,-16.115 -6.337,-31.259 -17.84,-42.645l0,0zm-62.924,6.399c6.077,-3.272 12.922,-5.016 19.976,-5.016c7.885,0 15.437,2.142 21.973,6.147l-20.403,20.195l-21.546,-21.326zm19.976,77.509c-7.887,0 -15.438,-2.142 -21.973,-6.147l37.611,-37.228l19.87,-19.667c4.09,6.474 6.278,13.961 6.278,21.779c0,22.753 -18.745,41.263 -41.786,41.263z"/>
      <path fill="#ffffff" d="m404.75,91l-32.3,0c-5.246,0 -9.5,4.254 -9.5,9.5c0,5.246 4.254,9.5 9.5,9.5l32.3,0c5.246,0 9.5,-4.254 9.5,-9.5c0,-5.246 -4.254,-9.5 -9.5,-9.5z"/>
     </g>
    </g>
   </g>
   <g/>
   <g/>
   <g/>
   <g/>
   <g/>
   <g/>
   <g/>
   <g/>
   <g/>
   <g/>
   <g/>
   <g/>
   <g/>
   <g/>
   <g/>
  </g>
 </g>

</svg>